# 3ds Max Wavefront OBJ Exporter v0.97b - (c)2007 guruware
# File Created: 27.04.2019 02:42:37

mtllib test.mtl

#
# object Box001
#

v  0.4806 0.5900 -0.0000
v  0.8321 0.3540 -0.0000
v  0.1967 0.3540 -0.0000
v  0.1967 0.5900 -0.0000
v  -0.1967 0.3540 -0.0000
v  -0.1967 0.5900 -0.0000
v  -0.5900 0.3540 -0.0000
v  -0.5900 0.3752 -0.0000
v  1.5068 0.1180 -0.0000
v  0.1967 0.1180 -0.0000
v  -0.1967 0.1180 -0.0000
v  -0.5900 0.1180 -0.0000
v  1.5068 -0.1180 0.0000
v  0.1967 -0.1180 0.0000
v  -0.1967 -0.1180 0.0000
v  -0.5900 -0.1180 0.0000
v  0.8321 -0.3540 0.0000
v  0.1967 -0.3540 0.0000
v  -0.1967 -0.3540 0.0000
v  -0.5900 -0.3540 0.0000
v  0.4806 -0.5900 0.0000
v  0.1967 -0.5900 0.0000
v  -0.1967 -0.5900 0.0000
v  -0.5900 -0.3831 0.0000
v  0.4806 0.5900 1.1800
v  0.1967 0.5900 1.1800
v  0.1967 0.3540 1.1800
v  0.8321 0.3540 1.1800
v  -0.1967 0.5900 1.1800
v  -0.1967 0.3540 1.1800
v  -0.5900 0.3752 1.1800
v  -0.5900 0.3540 1.1800
v  0.1967 0.1180 1.1800
v  1.5068 0.1180 1.0152
v  -0.1967 0.1180 1.1800
v  -0.5900 0.1180 1.1800
v  0.1967 -0.1180 1.1800
v  1.5068 -0.1180 1.0152
v  -0.1967 -0.1180 1.1800
v  -0.5900 -0.1180 1.1800
v  0.1967 -0.3540 1.1800
v  0.8321 -0.3540 1.1800
v  -0.1967 -0.3540 1.1800
v  -0.5900 -0.3540 1.1800
v  0.1967 -0.5900 1.1800
v  0.4806 -0.5900 1.1800
v  -0.1967 -0.5900 1.1800
v  -0.5900 -0.3831 1.1800
# 48 vertices

vn -0.0000 -0.0000 -1.0000
vn 0.0000 0.0000 1.0000
vn 0.0861 -0.2317 0.9690
vn 0.0383 -0.0191 0.9991
vn 0.1246 -0.0580 0.9905
vn 0.0625 0.0000 0.9980
vn 0.1146 0.0563 0.9918
vn 0.0277 0.0197 0.9994
vn 0.0000 0.4837 0.8752
vn 0.0000 1.0000 -0.0000
vn -0.2473 0.9689 -0.0000
vn -0.4792 0.8777 -0.0000
vn -1.0000 0.0000 -0.0000
vn -0.4655 -0.8850 0.0000
vn -0.2397 -0.9708 0.0000
vn -0.0000 -1.0000 0.0000
vn 0.5575 -0.8302 0.0000
vn 0.4474 -0.8943 0.0000
vn 0.4563 -0.8898 0.0000
vn 0.8155 -0.5787 0.0000
vn 0.7870 -0.6170 0.0000
vn 0.8155 0.5787 -0.0000
vn 0.7870 0.6170 -0.0000
vn 0.4474 0.8943 -0.0000
vn 0.4563 0.8898 -0.0000
vn 0.5575 0.8302 -0.0000
# 26 vertex normals

vt 1.0000 0.0000 0.0000
vt 1.0000 0.2000 0.0000
vt 0.6667 0.2000 0.0000
vt 0.6667 0.0000 0.0000
vt 0.3333 0.2000 0.0000
vt 0.3333 0.0000 0.0000
vt -0.0000 0.2000 0.0000
vt -0.0000 0.0000 0.0000
vt 1.0000 0.4000 0.0000
vt 0.6667 0.4000 0.0000
vt 0.3333 0.4000 0.0000
vt -0.0000 0.4000 0.0000
vt 1.0000 0.6000 0.0000
vt 0.6667 0.6000 0.0000
vt 0.3333 0.6000 0.0000
vt -0.0000 0.6000 0.0000
vt 1.0000 0.8000 0.0000
vt 0.6667 0.8000 0.0000
vt 0.3333 0.8000 0.0000
vt -0.0000 0.8000 0.0000
vt 1.0000 1.0000 0.0000
vt 0.6667 1.0000 0.0000
vt 0.3333 1.0000 0.0000
vt -0.0000 1.0000 0.0000
vt 0.0000 0.0000 0.0000
vt 0.0000 0.2000 0.0000
vt 0.0000 0.4000 0.0000
vt 0.0000 0.6000 0.0000
vt 0.0000 0.8000 0.0000
vt 0.0000 1.0000 0.0000
vt 0.2000 0.0000 0.0000
vt 0.2000 1.0000 0.0000
vt 0.4000 0.0000 0.0000
vt 0.4000 1.0000 0.0000
vt 0.6000 0.0000 0.0000
vt 0.6000 1.0000 0.0000
vt 0.8000 0.0000 0.0000
vt 0.8000 1.0000 0.0000
# 38 texture coords

o Box001
g Box001
usemtl wire_225143087
s 2
f 1/1/1 2/2/1 3/3/1 
f 3/3/1 4/4/1 1/1/1 
f 4/4/1 3/3/1 5/5/1 
f 5/5/1 6/6/1 4/4/1 
f 6/6/1 5/5/1 7/7/1 
f 7/7/1 8/8/1 6/6/1 
f 2/2/1 9/9/1 10/10/1 
f 10/10/1 3/3/1 2/2/1 
f 3/3/1 10/10/1 11/11/1 
f 11/11/1 5/5/1 3/3/1 
f 5/5/1 11/11/1 12/12/1 
f 12/12/1 7/7/1 5/5/1 
f 9/9/1 13/13/1 14/14/1 
f 14/14/1 10/10/1 9/9/1 
f 10/10/1 14/14/1 15/15/1 
f 15/15/1 11/11/1 10/10/1 
f 11/11/1 15/15/1 16/16/1 
f 16/16/1 12/12/1 11/11/1 
f 13/13/1 17/17/1 18/18/1 
f 18/18/1 14/14/1 13/13/1 
f 14/14/1 18/18/1 19/19/1 
f 19/19/1 15/15/1 14/14/1 
f 15/15/1 19/19/1 20/20/1 
f 20/20/1 16/16/1 15/15/1 
f 17/17/1 21/21/1 22/22/1 
f 22/22/1 18/18/1 17/17/1 
f 18/18/1 22/22/1 23/23/1 
f 23/23/1 19/19/1 18/18/1 
f 19/19/1 23/23/1 24/24/1 
f 24/24/1 20/20/1 19/19/1 
s 4
f 25/25/2 26/6/2 27/5/2 
f 27/5/2 28/26/3 25/25/2 
f 26/6/2 29/4/2 30/3/2 
f 30/3/2 27/5/2 26/6/2 
f 29/4/2 31/1/2 32/2/2 
f 32/2/2 30/3/2 29/4/2 
f 28/26/3 27/5/2 33/11/4 
f 33/11/4 34/27/5 28/26/3 
f 27/5/2 30/3/2 35/10/2 
f 35/10/2 33/11/4 27/5/2 
f 30/3/2 32/2/2 36/9/2 
f 36/9/2 35/10/2 30/3/2 
f 34/27/5 33/11/4 37/15/6 
f 37/15/6 38/28/7 34/27/5 
f 33/11/4 35/10/2 39/14/2 
f 39/14/2 37/15/6 33/11/4 
f 35/10/2 36/9/2 40/13/2 
f 40/13/2 39/14/2 35/10/2 
f 38/28/7 37/15/6 41/19/8 
f 41/19/8 42/29/9 38/28/7 
f 37/15/6 39/14/2 43/18/2 
f 43/18/2 41/19/8 37/15/6 
f 39/14/2 40/13/2 44/17/2 
f 44/17/2 43/18/2 39/14/2 
f 42/29/9 41/19/8 45/23/2 
f 45/23/2 46/30/2 42/29/9 
f 41/19/8 43/18/2 47/22/2 
f 47/22/2 45/23/2 41/19/8 
f 43/18/2 44/17/2 48/21/2 
f 48/21/2 47/22/2 43/18/2 
s 8
f 1/25/10 4/6/10 26/23/10 
f 26/23/10 25/30/10 1/25/10 
f 4/6/10 6/4/11 29/22/11 
f 29/22/11 26/23/10 4/6/10 
f 6/4/11 8/1/12 31/21/12 
f 31/21/12 29/22/11 6/4/11 
s 16
f 8/25/13 7/31/13 32/32/13 
f 32/32/13 31/30/13 8/25/13 
f 7/31/13 12/33/13 36/34/13 
f 36/34/13 32/32/13 7/31/13 
f 12/33/13 16/35/13 40/36/13 
f 40/36/13 36/34/13 12/33/13 
f 16/35/13 20/37/13 44/38/13 
f 44/38/13 40/36/13 16/35/13 
f 20/37/13 24/1/13 48/21/13 
f 48/21/13 44/38/13 20/37/13 
s 32
f 24/25/14 23/6/15 47/23/15 
f 47/23/15 48/30/14 24/25/14 
f 23/6/15 22/4/16 45/22/16 
f 45/22/16 47/23/15 23/6/15 
f 22/4/16 21/1/16 46/21/16 
f 46/21/16 45/22/16 22/4/16 
s 64
f 21/25/17 17/31/18 42/32/19 
f 42/32/19 46/30/17 21/25/17 
f 17/31/18 13/33/20 38/34/21 
f 38/34/21 42/32/19 17/31/18 
f 13/33/20 9/35/22 34/36/23 
f 34/36/23 38/34/21 13/33/20 
f 9/35/22 2/37/24 28/38/25 
f 28/38/25 34/36/23 9/35/22 
f 2/37/24 1/1/26 25/21/26 
f 25/21/26 28/38/25 2/37/24 
# 92 faces

